<svg width="651" height="82" viewBox="0 0 651 82" fill="none" xmlns="http://www.w3.org/2000/svg">
<path d="M605.12 80.3967V51.1389L576.723 1.22852H594.056L613.479 37.0017L632.903 1.22852H650.113L621.716 51.1389V80.3967H605.12Z" fill="#01FF48"/>
<path d="M530.419 80.3967V14.0134H506.078V1.22852H571.232V14.0134H547.014V80.3967H530.419Z" fill="#01FF48"/>
<path d="M480.379 80.3967V1.22852H496.975V80.3967H480.379Z" fill="#01FF48"/>
<path d="M423.648 80.3967L393.406 1.22852H410.74L432.622 61.834L454.626 1.22852H471.96L441.841 80.3967H423.648Z" fill="#01FF48"/>
<path d="M367.051 80.3967V1.22852H383.647V80.3967H367.051Z" fill="#01FF48"/>
<path d="M317.087 80.3967V14.0134H292.746V1.22852H357.9V14.0134H333.682V80.3967H317.087Z" fill="#01FF48"/>
<path d="M218.012 80.3967L248.253 1.22852H266.447L296.565 80.3967H279.355L271.856 61.3423H242.721L235.345 80.3967H218.012ZM245.18 48.5573H269.397L257.227 16.718L245.18 48.5573Z" fill="#01FF48"/>
<path d="M152.164 80.3967V1.22852H208.959V14.1364H168.76V34.4202H204.41V47.2051H168.76V67.6118H208.959V80.3967H152.164Z" fill="#01FF48"/>
<path d="M76.1719 80.3967V1.22852H114.158C123.255 1.22852 129.934 3.64618 134.196 8.4815C138.457 13.2349 140.588 19.6683 140.588 27.7818C140.588 33.1089 139.195 37.6983 136.409 41.5502C133.704 45.4021 129.852 48.1885 124.853 49.9096C126.164 50.975 127.189 52.1224 127.926 53.3517C128.746 54.581 129.565 56.2201 130.385 58.269L139.974 80.3967H122.763L113.42 59.1295C112.601 57.3265 111.699 56.0562 110.716 55.3186C109.732 54.581 108.093 54.2122 105.798 54.2122H92.7677V80.3967H76.1719ZM92.7677 40.4438H109.855C114.199 40.4438 117.6 39.5013 120.059 37.6164C122.517 35.6495 123.747 32.3713 123.747 27.7818C123.747 23.3563 122.681 20.1191 120.55 18.0702C118.42 16.0213 115.182 14.9969 110.839 14.9969H92.7677V40.4438Z" fill="#01FF48"/>
<path d="M41.0593 81.6268C27.7826 81.6268 17.6203 78.0618 10.5722 70.9318C3.52405 63.7198 0 53.9262 0 41.551C0 28.4383 3.40112 18.2349 10.2034 10.941C17.0875 3.64698 27.3319 0 40.9364 0C45.6897 0 49.9514 0.368796 53.7213 1.10639C57.5732 1.76203 61.1792 2.70451 64.5393 3.93382V18.4398C57.5732 15.5714 50.1153 14.1372 42.1657 14.1372C33.1507 14.1372 26.6762 16.3909 22.7424 20.8984C18.8086 25.4059 16.8417 32.2901 16.8417 41.551C16.8417 58.9254 25.365 67.6126 42.4115 67.6126C46.2634 67.6126 50.0743 67.2848 53.8442 66.6292C57.6141 65.8916 61.2201 64.8261 64.6622 63.4329V78.0618C61.3021 79.1272 57.6961 79.9878 53.8442 80.6434C50.0743 81.299 45.8127 81.6268 41.0593 81.6268Z" fill="#01FF48"/>
</svg>
