<svg width="54" height="37" viewBox="0 0 54 37" fill="none" xmlns="http://www.w3.org/2000/svg">
<path d="M46.131 11.3007C46.0265 10.0098 45.5616 9.0065 44.7363 8.29068C43.9215 7.56312 42.7567 7.19933 41.2419 7.19933C40.2389 7.19933 39.4032 7.34602 38.7346 7.63939C38.066 7.93276 37.5645 8.33762 37.2302 8.85395C36.8959 9.35855 36.7236 9.93942 36.7131 10.5966C36.6922 11.1364 36.7862 11.6116 36.9952 12.0224C37.2146 12.4331 37.528 12.7969 37.9354 13.1137C38.3533 13.4188 38.8547 13.6887 39.4398 13.9234C40.0248 14.1581 40.6829 14.3635 41.4142 14.5395L44.1722 15.2436C45.7601 15.6308 47.16 16.1472 48.3719 16.7926C49.5941 17.438 50.6179 18.2066 51.4432 19.0985C52.279 19.9903 52.911 21.0171 53.3394 22.1789C53.7677 23.3406 53.9871 24.6432 53.9975 26.0866C53.9871 28.3631 53.4752 30.317 52.4618 31.9481C51.4485 33.5793 49.9911 34.8291 48.0898 35.6974C46.1989 36.5658 43.9163 37 41.2419 37C38.557 37 36.2169 36.5482 34.2215 35.6446C32.2262 34.741 30.6748 33.3681 29.5674 31.5257C28.4601 29.6833 27.8907 27.3539 27.8594 24.5376H35.2871C35.3498 25.6993 35.6266 26.6675 36.1176 27.442C36.6086 28.2165 37.2825 28.8032 38.1391 29.2022C39.0062 29.6012 40.0091 29.8007 41.1478 29.8007C42.1925 29.8007 43.0805 29.6422 43.8118 29.3254C44.5535 29.0086 45.1229 28.5685 45.5199 28.0052C45.9168 27.442 46.1205 26.7965 46.131 26.069C46.1205 25.3884 45.9325 24.8075 45.5669 24.3264C45.2012 23.8335 44.6371 23.411 43.8745 23.059C43.1223 22.6952 42.1612 22.3608 40.9911 22.0557L37.6377 21.1755C34.8588 20.4597 32.6702 19.3038 31.0718 17.7079C29.4734 16.1002 28.6795 13.9293 28.6899 11.1951C28.6795 8.96543 29.2122 7.01158 30.2883 5.33349C31.3643 3.65541 32.853 2.34697 34.7543 1.40818C36.6557 0.469395 38.8234 0 41.2575 0C43.7439 0 45.9012 0.475261 47.7294 1.42578C49.568 2.36457 50.994 3.68475 52.0074 5.3863C53.0207 7.08785 53.5378 9.05931 53.5587 11.3007H46.131Z" fill="#FFA031"/>
<path d="M0 36.5436V0.494141H13.2571C15.6599 0.494141 17.7336 1.02221 19.4782 2.07835C21.2333 3.12275 22.5862 4.58374 23.5369 6.46131C24.4875 8.32716 24.9629 10.4981 24.9629 12.9742C24.9629 15.4619 24.4771 17.6388 23.5055 19.5046C22.5444 21.3587 21.1706 22.7962 19.3842 23.8172C17.5978 24.8381 15.4771 25.3486 13.0221 25.3486H4.84214V18.4837H11.5804C12.7504 18.4837 13.7272 18.2548 14.5107 17.7972C15.3047 17.3395 15.9054 16.7 16.3128 15.8785C16.7203 15.0454 16.924 14.0772 16.924 12.9742C16.924 11.8593 16.7203 10.8971 16.3128 10.0874C15.9054 9.26595 15.3047 8.63226 14.5107 8.18634C13.7168 7.74042 12.74 7.51745 11.5804 7.51745H7.75682V36.5436H0Z" fill="#FFA031"/>
</svg>
