<svg width="129" height="127" viewBox="0 0 129 127" fill="none" xmlns="http://www.w3.org/2000/svg">
<path d="M54.1708 67.3812C59.2797 75.9006 69.3083 76.8472 73.6839 76.2555L64.4598 86.5498C49.9846 83.71 43.5271 72.1142 42.1078 66.6712C36.7151 53.0403 43.6452 41.1132 47.7844 36.8535L81.1341 4.55133C104.692 -7.0918 119.333 6.3262 123.708 14.4906C135.629 30.6774 124.654 47.7398 117.677 54.2476L88.9394 81.5806C91.4938 77.6049 90.9498 68.5649 90.3585 64.5419L112.71 42.1785C121.509 30.8194 114.957 19.9334 110.581 15.9103C99.512 6.82298 88.4663 12.5972 84.3272 16.6203L59.8473 41.1131C48.778 49.6325 51.4508 62.1749 54.1708 67.3812Z" fill="#FFA031"/>
<path d="M64.4598 40.0482C59.6348 42.604 56.5363 48.4493 55.5902 51.0524C62.9696 49.9165 69.5451 53.8922 71.9104 56.022C79.8576 65.3933 76.4041 76.9658 73.6839 81.5806L42.1078 112.463C29.335 118.994 19.5201 113.291 16.2092 109.623C7.41057 98.2639 13.0162 87.6147 16.9188 83.71L38.2059 62.7665C37.0706 55.951 38.6789 48.0943 39.625 45.0179L13.3708 71.2859C0.598575 81.2252 -0.702302 92.9393 0.243791 97.554C0.811446 115.729 14.1987 123.585 20.8213 125.242C35.5804 130.354 47.5484 123.112 51.6876 118.852L81.8443 89.3896C86.1017 83.994 87.6391 78.3854 87.8756 76.2555C92.4169 54.1052 74.1573 42.888 64.4598 40.0482Z" fill="#FFA031"/>
</svg>
