<svg width="54" height="37" viewBox="0 0 54 37" fill="none" xmlns="http://www.w3.org/2000/svg">
<path d="M15.1393 0.492396H23.0156V25.3935C23.0048 27.7266 22.4937 29.7665 21.4823 31.5133C20.4709 33.2484 19.0721 34.5966 17.2859 35.558C15.5105 36.5193 13.4554 37 11.1205 37C9.05462 37 7.17702 36.6073 5.48771 35.8218C3.80917 35.0363 2.46957 33.817 1.4689 32.164C0.478988 30.5109 -0.0105863 28.3948 0.000173546 25.8156H7.95711C7.98939 26.7418 8.15079 27.5331 8.4413 28.1896C8.74258 28.8344 9.15684 29.321 9.68407 29.6492C10.2113 29.9775 10.8408 30.1416 11.5724 30.1416C12.3364 30.1416 12.982 29.9658 13.5092 29.6141C14.0364 29.2506 14.4346 28.7172 14.7036 28.0138C14.9833 27.3104 15.1286 26.4369 15.1393 25.3935V0.492396Z" fill="#FFA031"/>
<path d="M45.8978 11.2899C45.7902 10.0003 45.3114 8.99794 44.4614 8.2828C43.6221 7.55593 42.4224 7.19249 40.8622 7.19249C39.8292 7.19249 38.9684 7.33904 38.2798 7.63213C37.5912 7.92522 37.0747 8.32969 36.7304 8.84553C36.3861 9.34965 36.2085 9.92998 36.1978 10.5865C36.1763 11.1258 36.2731 11.6006 36.4883 12.0109C36.7142 12.4213 37.037 12.7847 37.4567 13.1012C37.8871 13.4061 38.4035 13.6757 39.0061 13.9102C39.6087 14.1446 40.2865 14.3498 41.0397 14.5257L43.8803 15.2291C45.5158 15.616 46.9577 16.1318 48.2058 16.7766C49.4647 17.4214 50.5192 18.1893 51.3692 19.0803C52.23 19.9713 52.881 20.9971 53.3221 22.1578C53.7633 23.3184 53.9892 24.6198 54 26.0618C53.9892 28.3362 53.462 30.2882 52.4183 31.9178C51.3746 33.5474 49.8736 34.7959 47.9153 35.6635C45.9677 36.5311 43.6167 36.9648 40.8622 36.9648C38.0969 36.9648 35.6867 36.5135 33.6315 35.6107C31.5764 34.708 29.9786 33.3363 28.838 31.4957C27.6975 29.6551 27.111 27.3279 27.0788 24.5143H34.729C34.7936 25.6749 35.0787 26.6421 35.5845 27.4159C36.0902 28.1896 36.7842 28.7758 37.6665 29.1744C38.5596 29.573 39.5925 29.7723 40.7653 29.7723C41.8413 29.7723 42.7559 29.6141 43.5091 29.2975C44.2731 28.981 44.8595 28.5414 45.2684 27.9786C45.6772 27.4159 45.887 26.7711 45.8978 26.0442C45.887 25.3642 45.6934 24.7839 45.3168 24.3032C44.9402 23.8108 44.3591 23.3888 43.5737 23.0371C42.799 22.6736 41.809 22.3395 40.6039 22.0347L37.15 21.1554C34.2879 20.4403 32.0337 19.2855 30.3874 17.6911C28.7412 16.0849 27.9234 13.916 27.9342 11.1844C27.9234 8.95691 28.4722 7.00491 29.5804 5.32842C30.6887 3.65193 32.222 2.34474 34.1803 1.40685C36.1386 0.468949 38.3713 0 40.8783 0C43.4392 0 45.6611 0.47481 47.5441 1.42443C49.4378 2.36233 50.9065 3.68124 51.9502 5.38118C52.994 7.08112 53.5266 9.0507 53.5481 11.2899H45.8978Z" fill="#FFA031"/>
</svg>
