<svg width="64" height="35" viewBox="0 0 64 35" fill="none" xmlns="http://www.w3.org/2000/svg">
<path d="M63.9997 17.3015V20.0703C62.4201 20.0703 61.3181 20.3871 60.6937 21.0207C60.0784 21.6544 59.7707 22.6783 59.7707 24.0926V27.1507C59.7707 28.8496 59.532 30.2087 59.0544 31.2281C58.5861 32.2566 57.9249 33.0326 57.0708 33.5561C56.2259 34.0795 55.2204 34.4285 54.0541 34.603C52.897 34.7774 51.6205 34.8647 50.2246 34.8647V30.4704C51.3082 30.4704 52.1302 30.3281 52.6903 30.0434C53.2597 29.7679 53.6454 29.3363 53.8474 28.7486C54.0495 28.17 54.1505 27.4399 54.1505 26.5583V22.536C54.1505 21.8289 54.2791 21.1631 54.5362 20.5386C54.7933 19.905 55.2709 19.3494 55.9688 18.8718C56.6667 18.3851 57.6631 18.004 58.958 17.7285C60.2529 17.4438 61.9334 17.3015 63.9997 17.3015ZM50.2246 0C51.6205 0 52.897 0.0872417 54.0541 0.261725C55.2204 0.43621 56.2259 0.785179 57.0708 1.30863C57.9249 1.83208 58.5861 2.60808 59.0544 3.63662C59.532 4.65597 59.7707 6.01511 59.7707 7.71404V10.7583C59.7707 12.1726 60.0784 13.1965 60.6937 13.8302C61.3181 14.4638 62.4201 14.7806 63.9997 14.7806V17.5494C61.9334 17.5494 60.2529 17.4117 58.958 17.1362C57.6631 16.8515 56.6667 16.4704 55.9688 15.9929C55.2709 15.5061 54.7933 14.9505 54.5362 14.3261C54.2791 13.6924 54.1505 13.0266 54.1505 12.3287V8.30636C54.1505 7.41558 54.0495 6.68091 53.8474 6.10235C53.6454 5.51462 53.2597 5.083 52.6903 4.8075C52.1302 4.52281 51.3082 4.38047 50.2246 4.38047V0ZM63.9997 14.7806V20.0703H59.0544V14.7806H63.9997Z" fill="#FFA031"/>
<path d="M43.5462 29.0933C42.6371 29.0933 41.8565 28.7719 41.2045 28.129C40.5617 27.477 40.2402 26.6964 40.2402 25.7873C40.2402 24.8873 40.5617 24.1159 41.2045 23.473C41.8565 22.8302 42.6371 22.5088 43.5462 22.5088C44.4279 22.5088 45.1993 22.8302 45.8605 23.473C46.5217 24.1159 46.8523 24.8873 46.8523 25.7873C46.8523 26.3934 46.6961 26.949 46.3839 27.454C46.0809 27.9499 45.6814 28.3494 45.1855 28.6525C44.6896 28.9463 44.1432 29.0933 43.5462 29.0933Z" fill="#FFA031"/>
<path d="M31.9935 29.0933C31.0844 29.0933 30.3038 28.7719 29.6518 28.129C29.0089 27.477 28.6875 26.6964 28.6875 25.7873C28.6875 24.8873 29.0089 24.1159 29.6518 23.473C30.3038 22.8302 31.0844 22.5088 31.9935 22.5088C32.8751 22.5088 33.6465 22.8302 34.3077 23.473C34.9689 24.1159 35.2995 24.8873 35.2995 25.7873C35.2995 26.3934 35.1434 26.949 34.8312 27.454C34.5281 27.9499 34.1287 28.3494 33.6327 28.6525C33.1368 28.9463 32.5904 29.0933 31.9935 29.0933Z" fill="#FFA031"/>
<path d="M20.4388 29.0933C19.5297 29.0933 18.7491 28.7719 18.0971 28.129C17.4542 27.477 17.1328 26.6964 17.1328 25.7873C17.1328 24.8873 17.4542 24.1159 18.0971 23.473C18.7491 22.8302 19.5297 22.5088 20.4388 22.5088C21.3204 22.5088 22.0918 22.8302 22.753 23.473C23.4142 24.1159 23.7448 24.8873 23.7448 25.7873C23.7448 26.3934 23.5887 26.949 23.2765 27.454C22.9734 27.9499 22.574 28.3494 22.0781 28.6525C21.5822 28.9463 21.0357 29.0933 20.4388 29.0933Z" fill="#FFA031"/>
<path d="M-0.00585938 17.5494V14.7806C1.58286 14.7806 2.68487 14.4638 3.30016 13.8302C3.91544 13.1965 4.22309 12.1726 4.22309 10.7583V7.71404C4.22309 6.01511 4.45726 4.65597 4.92561 3.63662C5.40315 2.60808 6.06435 1.83208 6.90922 1.30863C7.76328 0.785179 8.77345 0.43621 9.93974 0.261725C11.106 0.0872417 12.3825 0 13.7692 0V4.38047C12.6856 4.38047 11.8591 4.52281 11.2897 4.8075C10.7295 5.083 10.3484 5.51462 10.1464 6.10235C9.94433 6.68091 9.84331 7.41558 9.84331 8.30636V12.3287C9.84331 13.0266 9.71475 13.6924 9.45761 14.3261C9.20048 14.9505 8.72294 15.5061 8.025 15.9929C7.32707 16.4704 6.33067 16.8515 5.03581 17.1362C3.74096 17.4117 2.0604 17.5494 -0.00585938 17.5494ZM13.7692 34.8647C12.3825 34.8647 11.106 34.7774 9.93974 34.603C8.77345 34.4285 7.76328 34.0795 6.90922 33.5561C6.06435 33.0326 5.40315 32.2566 4.92561 31.2281C4.45726 30.2087 4.22309 28.8496 4.22309 27.1507V24.0926C4.22309 22.6783 3.91544 21.6544 3.30016 21.0207C2.68487 20.3871 1.58286 20.0703 -0.00585938 20.0703V17.3015C2.0604 17.3015 3.74096 17.4438 5.03581 17.7285C6.33067 18.004 7.32707 18.3851 8.025 18.8718C8.72294 19.3494 9.20048 19.905 9.45761 20.5386C9.71475 21.1631 9.84331 21.8289 9.84331 22.536V26.5583C9.84331 27.4399 9.94433 28.17 10.1464 28.7486C10.3484 29.3363 10.7295 29.7679 11.2897 30.0434C11.8591 30.3281 12.6856 30.4704 13.7692 30.4704V34.8647ZM-0.00585938 20.0703V14.7806H4.93939V20.0703H-0.00585938Z" fill="#FFA031"/>
</svg>
