<svg width="624" height="83" viewBox="0 0 624 83" fill="none" xmlns="http://www.w3.org/2000/svg">
<path d="M585.388 82.2655C559.736 82.2655 546.91 68.784 546.91 41.8209C546.91 27.3149 550.147 16.8247 556.622 10.3503C563.096 3.87588 572.685 0.638672 585.388 0.638672C598.091 0.638672 607.68 3.87588 614.154 10.3503C620.628 16.8247 623.866 27.3149 623.866 41.8209C623.866 68.784 611.04 82.2655 585.388 82.2655ZM585.388 68.1283C592.846 68.1283 598.296 65.9975 601.738 61.7359C605.262 57.3923 607.024 50.754 607.024 41.8209C607.024 31.9044 605.262 24.9382 601.738 20.9225C598.296 16.8247 592.846 14.7759 585.388 14.7759C577.93 14.7759 572.439 16.8247 568.915 20.9225C565.473 24.9382 563.752 31.9044 563.752 41.8209C563.752 50.754 565.473 57.3923 568.915 61.7359C572.439 65.9975 577.93 68.1283 585.388 68.1283Z" fill="#01FF48"/>
<path d="M501.805 81.0354V14.6521H477.465V1.86719H542.619V14.6521H518.401V81.0354H501.805Z" fill="#01FF48"/>
<path d="M399.906 81.0354V1.86719H414.289L451.784 54.605V1.86719H468.379V81.0354H453.996L416.502 28.2976V81.0354H399.906Z" fill="#01FF48"/>
<path d="M369.293 81.0354V1.86719H385.889V81.0354H369.293Z" fill="#01FF48"/>
<path d="M286.791 82.2655C281.71 82.2655 276.957 81.8967 272.531 81.1591C268.187 80.4215 264.418 79.3561 261.221 77.9629V63.334C264.827 64.8092 268.72 65.9975 272.9 66.899C277.08 67.8005 281.177 68.2513 285.193 68.2513C290.93 68.2513 295.151 67.7186 297.855 66.6532C300.56 65.5877 301.912 63.1701 301.912 59.4002C301.912 57.0235 301.338 55.1385 300.191 53.7453C299.043 52.3521 297.035 51.1227 294.167 50.0573C291.381 48.91 287.406 47.6397 282.243 46.2464C273.965 43.9517 268.146 41.0833 264.786 37.6412C261.426 34.1991 259.746 29.4457 259.746 23.3811C259.746 16.0871 262.41 10.4732 267.737 6.53941C273.064 2.60558 280.808 0.638672 290.971 0.638672C295.724 0.638672 300.15 0.966491 304.247 1.62213C308.345 2.27777 311.664 3.05634 314.205 3.95784V18.5867C307.485 16.0462 300.478 14.7759 293.184 14.7759C288.02 14.7759 283.964 15.3495 281.013 16.4969C278.063 17.5623 276.588 19.857 276.588 23.3811C276.588 25.43 277.12 27.0691 278.186 28.2984C279.251 29.5277 281.054 30.6341 283.595 31.6175C286.217 32.601 289.864 33.7074 294.536 34.9367C301.01 36.6577 306.01 38.7066 309.534 41.0833C313.058 43.46 315.475 46.1645 316.787 49.1968C318.18 52.2291 318.876 55.6303 318.876 59.4002C318.876 66.2844 316.254 71.8163 311.009 75.996C305.764 80.1757 297.691 82.2655 286.791 82.2655Z" fill="#01FF48"/>
<path d="M177.633 81.0354L207.874 1.86719H226.068L256.186 81.0354H238.976L231.477 61.9809H202.342L194.966 81.0354H177.633ZM204.801 49.196H229.018L216.848 17.3566L204.801 49.196Z" fill="#01FF48"/>
<path d="M111.777 81.0354V1.86719H168.572V14.775H128.373V35.0588H164.023V47.8438H128.373V68.2505H168.572V81.0354H111.777Z" fill="#01FF48"/>
<path d="M31.1055 81.0354V1.86719H64.2971C76.1805 1.86719 85.1136 4.94049 91.0963 11.0871C97.1609 17.1517 100.193 27.3961 100.193 41.8201C100.193 55.4246 97.2019 65.3821 91.2192 71.6926C85.3185 77.9211 76.3444 81.0354 64.2971 81.0354H31.1055ZM47.7013 68.2505H61.9614C66.6328 68.2505 70.5666 67.5539 73.7629 66.1606C76.9591 64.6854 79.3358 62.0629 80.8929 58.293C82.532 54.4411 83.3516 48.9501 83.3516 41.8201C83.3516 34.69 82.614 29.24 81.1388 25.4701C79.6636 21.7002 77.3689 19.1186 74.2546 17.7254C71.1403 16.3322 67.0426 15.6356 61.9614 15.6356H47.7013V68.2505Z" fill="#01FF48"/>
<path d="M0.492188 81.0354V1.86719H17.088V81.0354H0.492188Z" fill="#01FF48"/>
</svg>
