<svg width="583" height="82" viewBox="0 0 583 82" fill="none" xmlns="http://www.w3.org/2000/svg">
<path d="M216.81 81.9452C191.158 81.9452 178.332 68.4637 178.332 41.5006C178.332 26.9946 181.569 16.5044 188.044 10.03C194.518 3.55557 204.107 0.318359 216.81 0.318359C229.513 0.318359 239.101 3.55557 245.576 10.03C252.05 16.5044 255.287 26.9946 255.287 41.5006C255.287 68.4637 242.462 81.9452 216.81 81.9452ZM216.81 67.808C224.268 67.808 229.718 65.6772 233.16 61.4156C236.684 57.072 238.446 50.4336 238.446 41.5006C238.446 31.5841 236.684 24.6179 233.16 20.6021C229.718 16.5044 224.268 14.4555 216.81 14.4555C209.352 14.4555 203.861 16.5044 200.337 20.6021C196.895 24.6179 195.174 31.5841 195.174 41.5006C195.174 50.4336 196.895 57.072 200.337 61.4156C203.861 65.6772 209.352 67.808 216.81 67.808Z" fill="#01FF48"/>
<path d="M133.227 80.7151V14.3318H108.887V1.54688H174.041V14.3318H149.823V80.7151H133.227Z" fill="#01FF48"/>
<path d="M31.3281 80.7151V1.54688H45.7112L83.2054 54.2847V1.54688H99.8012V80.7151H85.4182L47.9239 27.9773V80.7151H31.3281Z" fill="#01FF48"/>
<path d="M0.714844 80.7151V1.54688H17.3107V80.7151H0.714844Z" fill="#01FF48"/>
<path d="M525.617 80.7151V1.54688H582.412V14.4547H542.213V34.7385H577.863V47.5234H542.213V67.9302H582.412V80.7151H525.617Z" fill="#01FF48"/>
<path d="M444.945 80.7151V1.54688H478.137C490.02 1.54688 498.953 4.62018 504.936 10.7668C511.001 16.8314 514.033 27.0758 514.033 41.4998C514.033 55.1043 511.042 65.0617 505.059 71.3723C499.158 77.6008 490.184 80.7151 478.137 80.7151H444.945ZM461.541 67.9302H475.801C480.473 67.9302 484.406 67.2335 487.603 65.8403C490.799 64.3651 493.176 61.7426 494.733 57.9727C496.372 54.1208 497.191 48.6298 497.191 41.4998C497.191 34.3697 496.454 28.9197 494.979 25.1498C493.503 21.3799 491.209 18.7983 488.094 17.4051C484.98 16.0119 480.882 15.3153 475.801 15.3153H461.541V67.9302Z" fill="#01FF48"/>
<path d="M394.884 81.9452C369.232 81.9452 356.406 68.4637 356.406 41.5006C356.406 26.9946 359.643 16.5044 366.118 10.03C372.592 3.55557 382.181 0.318359 394.884 0.318359C407.587 0.318359 417.176 3.55557 423.65 10.03C430.124 16.5044 433.362 26.9946 433.362 41.5006C433.362 68.4637 420.536 81.9452 394.884 81.9452ZM394.884 67.808C402.342 67.808 407.792 65.6772 411.234 61.4156C414.758 57.072 416.52 50.4336 416.52 41.5006C416.52 31.5841 414.758 24.6179 411.234 20.6021C407.792 16.5044 402.342 14.4555 394.884 14.4555C387.426 14.4555 381.935 16.5044 378.411 20.6021C374.969 24.6179 373.248 31.5841 373.248 41.5006C373.248 50.4336 374.969 57.072 378.411 61.4156C381.935 65.6772 387.426 67.808 394.884 67.808Z" fill="#01FF48"/>
<path d="M326.157 81.9452C312.88 81.9452 302.718 78.3802 295.67 71.2501C288.622 64.0381 285.098 54.2445 285.098 41.8694C285.098 28.7566 288.499 18.5533 295.301 11.2593C302.185 3.96534 312.43 0.318359 326.034 0.318359C330.787 0.318359 335.049 0.687155 338.819 1.42475C342.671 2.08039 346.277 3.02287 349.637 4.25218V18.7582C342.671 15.8897 335.213 14.4555 327.263 14.4555C318.248 14.4555 311.774 16.7093 307.84 21.2168C303.906 25.7243 301.939 32.6085 301.939 41.8694C301.939 59.2438 310.463 67.931 327.509 67.931C331.361 67.931 335.172 67.6031 338.942 66.9475C342.712 66.2099 346.318 65.1445 349.76 63.7513V78.3802C346.4 79.4456 342.794 80.3061 338.942 80.9617C335.172 81.6174 330.91 81.9452 326.157 81.9452Z" fill="#01FF48"/>
</svg>
