<svg width="1091" height="187" viewBox="0 0 1091 187" fill="none" xmlns="http://www.w3.org/2000/svg">
<path d="M1045.97 186.717V157.459L1017.57 107.549H1034.91L1054.33 143.322L1073.75 107.549H1090.96L1062.57 157.459V186.717H1045.97Z" fill="#01FF48"/>
<path d="M971.266 186.717V120.334H946.926V107.549H1012.08V120.334H987.862V186.717H971.266Z" fill="#01FF48"/>
<path d="M921.23 186.717V107.549H937.826V186.717H921.23Z" fill="#01FF48"/>
<path d="M856.523 186.717V107.549H873.119V173.932H912.089V186.717H856.523Z" fill="#01FF48"/>
<path d="M766.426 186.717L796.667 107.549H814.861L844.979 186.717H827.769L820.27 167.663H791.135L783.759 186.717H766.426ZM793.594 154.878H817.811L805.641 123.038L793.594 154.878Z" fill="#01FF48"/>
<path d="M700.578 186.717V107.549H757.373V120.457H717.174V140.74H752.824V153.525H717.174V173.932H757.373V186.717H700.578Z" fill="#01FF48"/>
<path d="M624.586 186.717V107.549H662.572C671.669 107.549 678.348 109.966 682.61 114.802C686.871 119.555 689.002 125.989 689.002 134.102C689.002 139.429 687.609 144.019 684.823 147.871C682.118 151.722 678.266 154.509 673.267 156.23C674.578 157.295 675.603 158.443 676.34 159.672C677.16 160.901 677.979 162.54 678.799 164.589L688.388 186.717H671.177L661.834 165.45C661.015 163.647 660.113 162.377 659.13 161.639C658.146 160.901 656.507 160.533 654.213 160.533H641.182V186.717H624.586ZM641.182 146.764H658.269C662.613 146.764 666.014 145.822 668.473 143.937C670.931 141.97 672.161 138.692 672.161 134.102C672.161 129.677 671.095 126.439 668.964 124.391C666.834 122.342 663.596 121.317 659.253 121.317H641.182V146.764Z" fill="#01FF48"/>
<path d="M945.896 81.6268C920.244 81.6268 907.418 68.1453 907.418 41.1822C907.418 26.6762 910.655 16.186 917.13 9.71163C923.604 3.23721 933.193 0 945.896 0C958.599 0 968.187 3.23721 974.662 9.71163C981.136 16.186 984.373 26.6762 984.373 41.1822C984.373 68.1453 971.548 81.6268 945.896 81.6268ZM945.896 67.4897C953.354 67.4897 958.804 65.3588 962.246 61.0972C965.77 56.7536 967.532 50.1153 967.532 41.1822C967.532 31.2657 965.77 24.2996 962.246 20.2838C958.804 16.186 953.354 14.1372 945.896 14.1372C938.438 14.1372 932.947 16.186 929.423 20.2838C925.981 24.2996 924.26 31.2657 924.26 41.1822C924.26 50.1153 925.981 56.7536 929.423 61.0972C932.947 65.3588 938.438 67.4897 945.896 67.4897Z" fill="#01FF48"/>
<path d="M862.313 80.3967V14.0134H837.973V1.22852H903.127V14.0134H878.909V80.3967H862.313Z" fill="#01FF48"/>
<path d="M760.414 80.3967V1.22852H774.797L812.291 53.9663V1.22852H828.887V80.3967H814.504L777.01 27.6589V80.3967H760.414Z" fill="#01FF48"/>
<path d="M729.801 80.3967V1.22852H746.397V80.3967H729.801Z" fill="#01FF48"/>
<path d="M647.299 81.6268C642.218 81.6268 637.464 81.258 633.039 80.5205C628.695 79.7829 624.925 78.7175 621.729 77.3242V62.6953C625.335 64.1705 629.228 65.3588 633.408 66.2604C637.587 67.1619 641.685 67.6126 645.701 67.6126C651.438 67.6126 655.658 67.0799 658.363 66.0145C661.067 64.9491 662.42 62.5314 662.42 58.7615C662.42 56.3848 661.846 54.4999 660.699 53.1066C659.551 51.7134 657.543 50.4841 654.675 49.4187C651.888 48.2713 647.914 47.001 642.75 45.6078C634.473 43.313 628.654 40.4446 625.294 37.0025C621.934 33.5604 620.254 28.8071 620.254 22.7424C620.254 15.4485 622.917 9.83456 628.244 5.90074C633.572 1.96691 641.316 0 651.479 0C656.232 0 660.658 0.327819 664.755 0.983458C668.853 1.6391 672.172 2.41767 674.713 3.31917V17.9481C667.993 15.4075 660.985 14.1372 653.691 14.1372C648.528 14.1372 644.472 14.7109 641.521 15.8582C638.571 16.9236 637.096 19.2184 637.096 22.7424C637.096 24.7913 637.628 26.4304 638.694 27.6597C639.759 28.889 641.562 29.9954 644.103 30.9789C646.725 31.9623 650.372 33.0687 655.044 34.298C661.518 36.0191 666.517 38.0679 670.041 40.4446C673.565 42.8213 675.983 45.5258 677.294 48.5581C678.688 51.5905 679.384 54.9916 679.384 58.7615C679.384 65.6457 676.762 71.1776 671.517 75.3573C666.271 79.537 658.199 81.6268 647.299 81.6268Z" fill="#01FF48"/>
<path d="M538.141 80.3967L568.382 1.22852H586.576L616.694 80.3967H599.484L591.985 61.3423H562.85L555.474 80.3967H538.141ZM565.309 48.5573H589.526L577.356 16.718L565.309 48.5573Z" fill="#01FF48"/>
<path d="M472.285 80.3967V1.22852H529.08V14.1364H488.881V34.4202H524.531V47.2051H488.881V67.6118H529.08V80.3967H472.285Z" fill="#01FF48"/>
<path d="M391.613 80.3967V1.22852H424.805C436.688 1.22852 445.621 4.30182 451.604 10.4484C457.669 16.5131 460.701 26.7574 460.701 41.1814C460.701 54.7859 457.71 64.7434 451.727 71.0539C445.826 77.2824 436.852 80.3967 424.805 80.3967H391.613ZM408.209 67.6118H422.469C427.141 67.6118 431.074 66.9152 434.271 65.522C437.467 64.0468 439.844 61.4242 441.401 57.6543C443.04 53.8024 443.859 48.3115 443.859 41.1814C443.859 34.0514 443.122 28.6014 441.647 24.8315C440.171 21.0615 437.877 18.48 434.762 17.0867C431.648 15.6935 427.55 14.9969 422.469 14.9969H408.209V67.6118Z" fill="#01FF48"/>
<path d="M361 80.3967V1.22852H377.596V80.3967H361Z" fill="#01FF48"/>
</svg>
