<svg width="1091" height="188" viewBox="0 0 1091 188" fill="none" xmlns="http://www.w3.org/2000/svg">
<path d="M373.81 187.945C348.158 187.945 335.332 174.464 335.332 147.501C335.332 132.995 338.569 122.504 345.044 116.03C351.518 109.556 361.107 106.318 373.81 106.318C386.513 106.318 396.101 109.556 402.576 116.03C409.05 122.504 412.287 132.995 412.287 147.501C412.287 174.464 399.462 187.945 373.81 187.945ZM373.81 173.808C381.268 173.808 386.718 171.677 390.16 167.416C393.684 163.072 395.446 156.434 395.446 147.501C395.446 137.584 393.684 130.618 390.16 126.602C386.718 122.504 381.268 120.456 373.81 120.456C366.352 120.456 360.861 122.504 357.337 126.602C353.895 130.618 352.174 137.584 352.174 147.501C352.174 156.434 353.895 163.072 357.337 167.416C360.861 171.677 366.352 173.808 373.81 173.808Z" fill="#01FF48"/>
<path d="M290.227 186.715V120.332H265.887V107.547H331.041V120.332H306.823V186.715H290.227Z" fill="#01FF48"/>
<path d="M188.328 186.715V107.547H202.711L240.205 160.285V107.547H256.801V186.715H242.418L204.924 133.977V186.715H188.328Z" fill="#01FF48"/>
<path d="M157.715 186.715V107.547H174.311V186.715H157.715Z" fill="#01FF48"/>
<path d="M682.617 186.715V107.547H739.412V120.455H699.213V140.739H734.863V153.523H699.213V173.93H739.412V186.715H682.617Z" fill="#01FF48"/>
<path d="M601.945 186.715V107.547H635.137C647.02 107.547 655.953 110.62 661.936 116.767C668.001 122.831 671.033 133.076 671.033 147.5C671.033 161.104 668.042 171.062 662.059 177.372C656.158 183.601 647.184 186.715 635.137 186.715H601.945ZM618.541 173.93H632.801C637.473 173.93 641.406 173.234 644.603 171.84C647.799 170.365 650.176 167.743 651.733 163.973C653.372 160.121 654.191 154.63 654.191 147.5C654.191 140.37 653.454 134.92 651.979 131.15C650.503 127.38 648.209 124.798 645.094 123.405C641.98 122.012 637.882 121.315 632.801 121.315H618.541V173.93Z" fill="#01FF48"/>
<path d="M551.884 187.945C526.232 187.945 513.406 174.464 513.406 147.501C513.406 132.995 516.643 122.504 523.118 116.03C529.592 109.556 539.181 106.318 551.884 106.318C564.587 106.318 574.176 109.556 580.65 116.03C587.124 122.504 590.362 132.995 590.362 147.501C590.362 174.464 577.536 187.945 551.884 187.945ZM551.884 173.808C559.342 173.808 564.792 171.677 568.234 167.416C571.758 163.072 573.52 156.434 573.52 147.501C573.52 137.584 571.758 130.618 568.234 126.602C564.792 122.504 559.342 120.456 551.884 120.456C544.426 120.456 538.935 122.504 535.411 126.602C531.969 130.618 530.248 137.584 530.248 147.501C530.248 156.434 531.969 163.072 535.411 167.416C538.935 171.677 544.426 173.808 551.884 173.808Z" fill="#01FF48"/>
<path d="M483.157 187.945C469.88 187.945 459.718 184.38 452.67 177.25C445.622 170.038 442.098 160.245 442.098 147.869C442.098 134.757 445.499 124.553 452.301 117.259C459.185 109.965 469.43 106.318 483.034 106.318C487.787 106.318 492.049 106.687 495.819 107.425C499.671 108.08 503.277 109.023 506.637 110.252V124.758C499.671 121.89 492.213 120.456 484.263 120.456C475.248 120.456 468.774 122.709 464.84 127.217C460.906 131.724 458.939 138.609 458.939 147.869C458.939 165.244 467.463 173.931 484.509 173.931C488.361 173.931 492.172 173.603 495.942 172.948C499.712 172.21 503.318 171.145 506.76 169.751V184.38C503.4 185.446 499.794 186.306 495.942 186.962C492.172 187.617 487.91 187.945 483.157 187.945Z" fill="#01FF48"/>
<path d="M605.12 80.3967V51.1389L576.723 1.22852H594.056L613.479 37.0017L632.903 1.22852H650.113L621.716 51.1389V80.3967H605.12Z" fill="#01FF48"/>
<path d="M530.419 80.3967V14.0134H506.078V1.22852H571.232V14.0134H547.014V80.3967H530.419Z" fill="#01FF48"/>
<path d="M480.379 80.3967V1.22852H496.975V80.3967H480.379Z" fill="#01FF48"/>
<path d="M423.648 80.3967L393.406 1.22852H410.74L432.622 61.834L454.626 1.22852H471.96L441.841 80.3967H423.648Z" fill="#01FF48"/>
<path d="M367.051 80.3967V1.22852H383.647V80.3967H367.051Z" fill="#01FF48"/>
<path d="M317.087 80.3967V14.0134H292.746V1.22852H357.9V14.0134H333.682V80.3967H317.087Z" fill="#01FF48"/>
<path d="M218.012 80.3967L248.253 1.22852H266.447L296.565 80.3967H279.355L271.856 61.3423H242.721L235.345 80.3967H218.012ZM245.18 48.5573H269.397L257.227 16.718L245.18 48.5573Z" fill="#01FF48"/>
<path d="M152.164 80.3967V1.22852H208.959V14.1364H168.76V34.4202H204.41V47.2051H168.76V67.6118H208.959V80.3967H152.164Z" fill="#01FF48"/>
<path d="M76.1719 80.3967V1.22852H114.158C123.255 1.22852 129.934 3.64618 134.196 8.48151C138.457 13.2349 140.588 19.6683 140.588 27.7818C140.588 33.1089 139.195 37.6983 136.409 41.5502C133.704 45.4021 129.852 48.1885 124.853 49.9096C126.164 50.975 127.189 52.1224 127.926 53.3517C128.746 54.581 129.565 56.2201 130.385 58.269L139.974 80.3967H122.763L113.42 59.1295C112.601 57.3265 111.699 56.0562 110.716 55.3186C109.732 54.581 108.093 54.2122 105.798 54.2122H92.7677V80.3967H76.1719ZM92.7677 40.4438H109.855C114.199 40.4438 117.6 39.5013 120.059 37.6164C122.517 35.6495 123.747 32.3713 123.747 27.7818C123.747 23.3563 122.681 20.1191 120.55 18.0702C118.42 16.0213 115.182 14.9969 110.839 14.9969H92.7677V40.4438Z" fill="#01FF48"/>
<path d="M41.0593 81.6268C27.7826 81.6268 17.6203 78.0618 10.5722 70.9318C3.52405 63.7198 0 53.9262 0 41.551C0 28.4383 3.40112 18.2349 10.2034 10.941C17.0875 3.64698 27.3319 0 40.9364 0C45.6897 0 49.9514 0.368796 53.7213 1.10639C57.5732 1.76203 61.1792 2.70451 64.5393 3.93382V18.4398C57.5732 15.5714 50.1153 14.1372 42.1657 14.1372C33.1507 14.1372 26.6762 16.3909 22.7424 20.8984C18.8086 25.4059 16.8417 32.2901 16.8417 41.551C16.8417 58.9254 25.365 67.6126 42.4115 67.6126C46.2634 67.6126 50.0743 67.2848 53.8442 66.6291C57.6141 65.8916 61.2201 64.8261 64.6622 63.4329V78.0618C61.3021 79.1272 57.6961 79.9878 53.8442 80.6434C50.0743 81.299 45.8127 81.6268 41.0593 81.6268Z" fill="#01FF48"/>
</svg>
