<svg width="467" height="80" viewBox="0 0 467 80" fill="none" xmlns="http://www.w3.org/2000/svg">
<path d="M421.464 79.3557V50.0979L393.066 0.1875H410.4L429.823 35.9607L449.246 0.1875H466.457L438.06 50.0979V79.3557H421.464Z" fill="#01FF48"/>
<path d="M346.758 79.3557V12.9724H322.418V0.1875H387.572V12.9724H363.354V79.3557H346.758Z" fill="#01FF48"/>
<path d="M296.723 79.3557V0.1875H313.318V79.3557H296.723Z" fill="#01FF48"/>
<path d="M232.016 79.3557V0.1875H248.611V66.5708H287.581V79.3557H232.016Z" fill="#01FF48"/>
<path d="M141.918 79.3557L172.159 0.1875H190.353L220.472 79.3557H203.261L195.762 60.3012H166.627L159.251 79.3557H141.918ZM169.086 47.5163H193.304L181.133 15.6769L169.086 47.5163Z" fill="#01FF48"/>
<path d="M76.0703 79.3557V0.1875H132.865V13.0954H92.6661V33.3791H128.316V46.1641H92.6661V66.5708H132.865V79.3557H76.0703Z" fill="#01FF48"/>
<path d="M0.078125 79.3557V0.1875H38.0641C47.1611 0.1875 53.8404 2.60516 58.102 7.44049C62.3637 12.1939 64.4945 18.6273 64.4945 26.7408C64.4945 32.0679 63.1013 36.6573 60.3148 40.5092C57.6103 44.3611 53.7584 47.1475 48.7592 48.8686C50.0705 49.934 51.0949 51.0813 51.8325 52.3107C52.652 53.54 53.4716 55.1791 54.2911 57.228L63.8798 79.3557H46.6694L37.3265 58.0885C36.507 56.2855 35.6055 55.0152 34.622 54.2776C33.6386 53.54 31.9995 53.1712 29.7047 53.1712H16.6739V79.3557H0.078125ZM16.6739 39.4028H33.7615C38.1051 39.4028 41.5062 38.4603 43.9648 36.5754C46.4235 34.6085 47.6528 31.3303 47.6528 26.7408C47.6528 22.3153 46.5874 19.0781 44.4566 17.0292C42.3258 14.9803 39.0885 13.9559 34.7449 13.9559H16.6739V39.4028Z" fill="#01FF48"/>
</svg>
