<?xml version="1.0" encoding="utf-8"?>
<!-- Generator: Adobe Illustrator 24.2.0, SVG Export Plug-In . SVG Version: 6.00 Build 0)  -->
<svg version="1.1" id="Layer_1" xmlns="http://www.w3.org/2000/svg" xmlns:xlink="http://www.w3.org/1999/xlink" x="0px" y="0px"
	 viewBox="0 0 107.6 109.4" style="enable-background:new 0 0 107.6 109.4;" xml:space="preserve">
<style type="text/css">
	.st0{fill:#FFFFFF;}
</style>
<g>
	<path class="st0" d="M70.6,12.2c0.3,0.5,0.9,1,1.6,1.3c1.1,0.5,1.9,0.2,2.3-0.6c0.3-0.7,0.1-1.4-0.8-2.3c-1.1-1-1.6-2.1-1.1-3.2
		c0.6-1.2,2-1.7,3.6-1c0.8,0.4,1.3,0.8,1.6,1.2l-0.7,0.7c-0.2-0.3-0.6-0.7-1.4-1.1c-1.1-0.5-1.8,0-2,0.5c-0.3,0.7,0,1.3,0.9,2.3
		c1.1,1.1,1.5,2.1,1,3.3c-0.5,1.2-1.9,1.9-3.8,1.1c-0.8-0.3-1.5-1-1.8-1.4L70.6,12.2z"/>
	<path class="st0" d="M81,19.1c-0.5,0-1.3-0.3-2.2-0.9c-2.1-1.3-2.8-3.6-1.3-6.1c1.5-2.3,4-2.9,6.3-1.4c0.9,0.6,1.4,1.2,1.5,1.4
		l-0.7,0.6c-0.3-0.4-0.7-0.9-1.3-1.3c-1.7-1.1-3.6-0.7-4.8,1.2c-1.2,1.8-0.8,3.6,1,4.8c0.6,0.4,1.3,0.6,1.8,0.7L81,19.1z"/>
	<path class="st0" d="M87.4,13.6c0.5,0.3,1.2,0.8,1.8,1.3c0.9,0.8,1.4,1.5,1.4,2.2c0.1,0.6-0.1,1.2-0.6,1.7c-0.8,0.9-1.8,1-2.7,0.6
		l0,0c0.4,0.6,0.2,1.4-0.2,2.2c-0.6,1.1-1,1.9-1.1,2.3l-0.9-0.8c0.1-0.3,0.4-1,0.9-2c0.6-1.1,0.5-1.7-0.2-2.4L85.1,18l-2.5,2.9
		l-0.9-0.7L87.4,13.6z M85.7,17.3l0.9,0.8c0.9,0.8,1.9,0.8,2.6,0.1c0.7-0.9,0.5-1.8-0.4-2.6c-0.4-0.4-0.7-0.6-0.9-0.7L85.7,17.3z"/>
	<path class="st0" d="M94.9,27.5c-2.3,1.9-4.7,1.5-6.2-0.3c-1.5-1.8-1.1-4.2,1-5.9c2.2-1.8,4.7-1.6,6.1,0.3
		C97.4,23.5,96.9,25.9,94.9,27.5z M90.5,22.3c-1.5,1.2-2.1,3-1,4.4c1.1,1.4,3.1,1.1,4.6-0.1c1.4-1.1,2.2-3,1-4.4
		C93.9,20.8,92,21.1,90.5,22.3z"/>
	<path class="st0" d="M99.5,27l0.6,1l-6.8,3.9l1.9,3.2l-0.8,0.5l-2.4-4.2L99.5,27z"/>
	<path class="st0" d="M102.9,33.2l0.4,1l-7.2,3l1.4,3.5L96.6,41l-1.9-4.5L102.9,33.2z"/>
	<path class="st0" d="M106.2,42.9c0.2,0.7,0.4,1.5,0.6,2.3c0.3,1.6,0.1,2.8-0.5,3.7c-0.6,0.9-1.5,1.5-2.9,1.8
		c-1.4,0.2-2.6,0-3.6-0.7c-0.9-0.7-1.6-1.9-1.9-3.6c-0.1-0.8-0.2-1.5-0.3-2L106.2,42.9z M98.7,45.3c0,0.3,0.1,0.7,0.1,1.1
		c0.4,2.4,2,3.4,4.3,3c2-0.3,3.1-1.7,2.7-4.1c-0.1-0.6-0.2-1-0.3-1.3L98.7,45.3z"/>
	<path class="st0" d="M103.3,60.1c-3,0-4.6-1.9-4.5-4.1c0-2.3,1.9-3.9,4.5-3.9c2.8,0,4.6,1.8,4.5,4.1
		C107.8,58.6,105.9,60.1,103.3,60.1z M103.3,53.3c-1.9,0-3.6,1-3.6,2.7c0,1.8,1.6,2.8,3.6,2.9c1.7,0,3.6-0.9,3.6-2.7
		C106.9,54.3,105.2,53.3,103.3,53.3z"/>
	<path class="st0" d="M98.5,62.4l9-0.2l-0.3,1.2l-4.6,0c-1.1,0-2.2,0-3.1,0l0,0c0.8,0.3,1.8,0.8,2.8,1.4l4,2.1l-0.3,1.2l-4.6,0
		c-1.1,0-2.1,0-3.1-0.1l0,0c0.9,0.4,1.8,0.9,2.8,1.4l4.1,2.1l-0.3,1.1l-8-4.4l0.3-1.2l4.7-0.1c1.2,0,2,0,2.9,0.1l0,0
		c-0.8-0.3-1.6-0.7-2.6-1.3l-4.2-2.2L98.5,62.4z"/>
	<path class="st0" d="M96.1,71.3l7.9,3.7l-0.5,1.1l-5.2,0.7c-1.2,0.2-2.3,0.2-3.2,0.2l0,0c1.1,0.4,2.1,0.8,3.3,1.4l3.3,1.5l-0.4,1
		l-8-3.7l0.5-1l5.2-0.7c1.1-0.1,2.3-0.3,3.3-0.3l0,0c-1-0.4-2-0.8-3.3-1.4l-3.4-1.6L96.1,71.3z"/>
	<path class="st0" d="M92.3,81.5c-0.6,0.2-1.2,0.6-1.7,1.3c-0.7,0.9-0.6,1.8,0.1,2.4c0.7,0.5,1.3,0.4,2.4-0.3
		c1.3-0.8,2.4-1.1,3.4-0.3c1.1,0.8,1.2,2.3,0.2,3.7c-0.5,0.7-1.1,1.1-1.5,1.3l-0.5-0.8c0.3-0.1,0.9-0.4,1.3-1.1c0.7-1,0.4-1.7,0-2.1
		c-0.7-0.5-1.3-0.3-2.4,0.4c-1.4,0.8-2.4,1-3.4,0.2c-1.1-0.8-1.4-2.3-0.2-4c0.5-0.7,1.3-1.2,1.8-1.4L92.3,81.5z"/>
	<path class="st0" d="M83.1,90.1c0.2-0.4,0.6-1.2,1.4-1.9c1.8-1.7,4.2-1.9,6.2,0.2c1.9,2,1.9,4.6-0.1,6.5c-0.8,0.8-1.4,1.1-1.8,1.2
		l-0.4-0.9c0.5-0.1,1-0.5,1.5-1c1.5-1.4,1.5-3.3-0.1-5c-1.5-1.5-3.3-1.7-4.9-0.2c-0.5,0.5-0.9,1.1-1.1,1.5L83.1,90.1z"/>
	<path class="st0" d="M87.1,97.6c-0.4,0.4-1,1-1.7,1.4c-1,0.7-1.8,1-2.5,0.9c-0.6-0.1-1.1-0.4-1.5-1c-0.7-0.9-0.5-2,0.1-2.8l0,0
		c-0.7,0.2-1.4-0.1-2.1-0.7c-0.9-0.8-1.6-1.4-1.9-1.6l1-0.7c0.3,0.1,0.9,0.6,1.7,1.4c0.9,0.8,1.6,0.9,2.4,0.4l0.9-0.6l-2.2-3.1
		l0.9-0.7L87.1,97.6z M83.8,95l-0.9,0.7c-1,0.7-1.2,1.7-0.6,2.5c0.7,0.9,1.6,0.9,2.6,0.2c0.4-0.3,0.7-0.6,0.9-0.7L83.8,95z"/>
	<path class="st0" d="M71.8,101.6c-1.3-2.7-0.3-5,1.7-5.9c2.1-1,4.3-0.1,5.5,2.3c1.2,2.5,0.4,4.9-1.7,5.9
		C75.1,104.9,72.9,104,71.8,101.6z M77.8,98.5c-0.8-1.7-2.4-2.8-4.1-2c-1.6,0.8-1.8,2.7-1,4.5c0.8,1.6,2.4,2.8,4.1,2
		C78.6,102.2,78.7,100.3,77.8,98.5z"/>
	<path class="st0" d="M71.2,106.3l-1.1,0.3l-2.2-7.5l-3.6,1.1L64,99.2l4.7-1.4L71.2,106.3z"/>
	<path class="st0" d="M64.4,108l-1.1,0.2l-1.2-7.7l-3.7,0.6l-0.1-0.9l4.8-0.7L64.4,108z"/>
	<path class="st0" d="M54.2,109c-0.7,0.1-1.5,0.1-2.4,0c-1.6-0.1-2.8-0.5-3.5-1.3c-0.7-0.8-1.1-1.8-1-3.2c0.1-1.4,0.6-2.6,1.5-3.3
		c0.9-0.8,2.2-1.1,3.9-1c0.8,0,1.5,0.1,2,0.2L54.2,109z M53.5,101.2c-0.3-0.1-0.7-0.1-1.1-0.1c-2.4-0.1-3.8,1.1-3.9,3.5
		c-0.1,2.1,1,3.4,3.3,3.6c0.6,0,1,0,1.3,0L53.5,101.2z"/>
	<path class="st0" d="M38.1,102.2c0.7-2.9,2.9-4,5.1-3.5c2.2,0.6,3.4,2.7,2.7,5.3c-0.7,2.7-2.8,4-5.1,3.5
		C38.5,106.9,37.5,104.7,38.1,102.2z M44.7,103.7c0.5-1.8-0.1-3.7-1.8-4.1c-1.7-0.4-3.1,0.9-3.6,2.8c-0.4,1.7,0,3.7,1.8,4.1
		C42.9,107.1,44.3,105.6,44.7,103.7z"/>
	<path class="st0" d="M36.9,96.9l-1.9,8.8l-1.1-0.5l1-4.4c0.3-1.1,0.5-2.2,0.8-3l0,0c-0.5,0.7-1.2,1.5-2,2.4l-3,3.4l-1.1-0.5l1-4.5
		c0.2-1,0.5-2.1,0.8-3l0,0c-0.6,0.8-1.2,1.5-2,2.4l-3,3.4l-1-0.5l6.1-6.7l1.1,0.5l-1,4.6c-0.3,1.1-0.5,2-0.8,2.8l0,0
		c0.5-0.7,1.1-1.4,1.9-2.3l3.2-3.5L36.9,96.9z"/>
	<path class="st0" d="M28.9,92.6l-5.4,6.9l-1-0.8l0.6-5.2c0.1-1.2,0.3-2.2,0.5-3.2l0,0c-0.6,1-1.3,1.8-2.1,2.9l-2.3,2.9l-0.8-0.7
		l5.4-6.9l0.9,0.7l-0.6,5.2c-0.1,1.1-0.3,2.3-0.5,3.3l0,0c0.6-0.9,1.3-1.7,2.2-2.9l2.3-2.9L28.9,92.6z"/>
	<path class="st0" d="M19.8,86.5c-0.1-0.6-0.3-1.3-0.8-1.9c-0.7-0.9-1.6-1-2.3-0.5c-0.6,0.5-0.7,1.2-0.3,2.4
		c0.5,1.4,0.5,2.6-0.5,3.4c-1.1,0.9-2.6,0.6-3.6-0.7c-0.6-0.7-0.8-1.3-0.9-1.8l0.9-0.3c0.1,0.3,0.2,0.9,0.7,1.6
		c0.8,0.9,1.6,0.8,2.1,0.4c0.6-0.5,0.6-1.2,0.2-2.4c-0.5-1.5-0.4-2.5,0.6-3.4c1-0.9,2.6-0.8,3.9,0.8c0.5,0.7,0.9,1.5,1,2.1
		L19.8,86.5z"/>
	<path class="st0" d="M13.6,75.6c0.4,0.3,1,0.9,1.6,1.8c1.3,2.1,0.9,4.5-1.6,6c-2.4,1.4-4.9,0.8-6.3-1.6c-0.6-0.9-0.7-1.6-0.7-2
		l0.9-0.2c0,0.5,0.2,1.1,0.6,1.7c1,1.8,2.9,2.3,4.9,1.1c1.8-1.1,2.4-2.9,1.3-4.7c-0.4-0.6-0.8-1.1-1.3-1.4L13.6,75.6z"/>
	<path class="st0" d="M5.4,77.6c-0.3-0.5-0.7-1.2-1-1.9c-0.5-1.1-0.5-1.9-0.3-2.6c0.2-0.6,0.7-1,1.3-1.3c1.1-0.4,2.1,0,2.7,0.7l0,0
		c0-0.7,0.4-1.3,1.2-1.9c1-0.7,1.7-1.2,2-1.5l0.4,1.1c-0.2,0.2-0.8,0.7-1.7,1.3c-1,0.7-1.3,1.3-0.9,2.3l0.4,1l3.5-1.4l0.4,1
		L5.4,77.6z M8.7,75.1L8.3,74c-0.4-1.1-1.4-1.6-2.3-1.2c-1.1,0.4-1.2,1.4-0.8,2.5c0.2,0.5,0.4,0.8,0.5,1L8.7,75.1z"/>
	<path class="st0" d="M5.1,61.8c2.9-0.6,4.9,0.8,5.4,3c0.5,2.3-0.9,4.2-3.5,4.8c-2.7,0.6-4.9-0.7-5.3-3C1.1,64.3,2.5,62.4,5.1,61.8z
		 M6.6,68.4c1.8-0.4,3.3-1.7,2.9-3.5c-0.4-1.8-2.2-2.4-4.1-2c-1.7,0.4-3.3,1.6-2.9,3.5C2.9,68.3,4.8,68.8,6.6,68.4z"/>
	<path class="st0" d="M0.7,60.2l-0.1-1.1l7.8-0.4l-0.2-3.7l0.9,0l0.2,4.9L0.7,60.2z"/>
	<path class="st0" d="M0.6,53.2l0.1-1.1l7.8,0.6L8.7,49L9.7,49l-0.4,4.9L0.6,53.2z"/>
	<path class="st0" d="M2,43c0.1-0.7,0.3-1.5,0.5-2.4c0.5-1.6,1.2-2.6,2.1-3.1c0.9-0.5,2-0.7,3.4-0.3c1.4,0.4,2.4,1.2,2.9,2.2
		c0.5,1,0.6,2.4,0.1,4.1c-0.2,0.8-0.5,1.4-0.7,1.9L2,43z M9.7,44.2c0.1-0.3,0.3-0.7,0.4-1.1c0.7-2.3-0.2-4-2.5-4.7
		c-2-0.6-3.6,0.1-4.3,2.4c-0.2,0.6-0.3,1-0.3,1.3L9.7,44.2z"/>
	<path class="st0" d="M12.3,29c2.7,1.4,3.2,3.8,2.2,5.8c-1.1,2-3.4,2.6-5.8,1.4c-2.5-1.3-3.3-3.7-2.2-5.7C7.7,28.3,10,27.8,12.3,29z
		 M9.3,35.1c1.7,0.9,3.6,0.8,4.4-0.8c0.8-1.6-0.2-3.3-1.9-4.2c-1.5-0.8-3.6-0.9-4.5,0.8C6.5,32.5,7.6,34.2,9.3,35.1z"/>
	<path class="st0" d="M17.8,29.1l-8.1-3.9l0.8-0.9l4.1,2c1,0.5,2,1,2.7,1.4l0,0c-0.6-0.7-1.2-1.5-1.9-2.5l-2.6-3.7l0.8-0.9l4.1,2
		c1,0.5,1.9,1,2.7,1.5l0,0c-0.6-0.8-1.2-1.6-1.9-2.5l-2.6-3.7l0.7-0.9l5.1,7.5l-0.8,0.9l-4.2-2.1c-1-0.5-1.8-0.9-2.6-1.4l0,0
		c0.6,0.7,1.1,1.4,1.8,2.4l2.7,3.9L17.8,29.1z"/>
	<path class="st0" d="M23.8,22.3l-5.4-6.9l1-0.8l4.9,1.7c1.1,0.4,2.1,0.8,3,1.3l0,0c-0.8-0.9-1.5-1.7-2.3-2.7L22.7,12l0.8-0.7
		l5.4,6.9l-0.9,0.7l-4.9-1.8c-1.1-0.4-2.2-0.8-3.1-1.3l0,0c0.7,0.8,1.4,1.6,2.3,2.8l2.3,2.9L23.8,22.3z"/>
	<path class="st0" d="M31.9,14.8c0.6,0.1,1.4,0,2.1-0.4c1-0.5,1.4-1.3,1-2.1c-0.4-0.7-1-1-2.2-0.9c-1.5,0.2-2.6-0.1-3.2-1.2
		c-0.6-1.2,0-2.6,1.5-3.4c0.8-0.4,1.5-0.5,1.9-0.5l0.1,1c-0.3,0-1,0-1.7,0.3c-1.1,0.5-1.2,1.4-0.9,1.9c0.4,0.7,1,0.9,2.3,0.8
		c1.6-0.1,2.6,0.2,3.1,1.3c0.6,1.2,0.2,2.7-1.7,3.6c-0.8,0.4-1.7,0.5-2.3,0.5L31.9,14.8z"/>
	<path class="st0" d="M44,11.4c-0.3,0.3-1.1,0.8-2.1,1.1c-2.4,0.7-4.6-0.2-5.5-3c-0.8-2.6,0.4-4.9,3-5.8c1-0.3,1.8-0.3,2.1-0.2l0,1
		c-0.5-0.1-1.1,0-1.8,0.2c-2,0.6-2.9,2.3-2.2,4.5c0.6,2,2.2,3,4.3,2.4c0.7-0.2,1.3-0.5,1.7-0.9L44,11.4z"/>
	<path class="st0" d="M43.9,2.9c0.5-0.2,1.4-0.4,2.1-0.5c1.2-0.2,2-0.1,2.6,0.3c0.5,0.3,0.8,0.9,0.9,1.5c0.2,1.1-0.4,2-1.3,2.5l0,0
		c0.7,0.1,1.2,0.7,1.5,1.6c0.5,1.2,0.8,2,1,2.3l-1.2,0.2c-0.2-0.2-0.5-0.9-0.9-2c-0.4-1.2-1-1.5-2-1.4l-1.1,0.2l0.5,3.8l-1.1,0.2
		L43.9,2.9z M45.6,6.7l1.1-0.2c1.2-0.2,1.9-0.9,1.7-1.9c-0.2-1.1-1-1.5-2.2-1.3c-0.5,0.1-0.9,0.2-1.1,0.3L45.6,6.7z"/>
	<path class="st0" d="M59.3,6.3c-0.1,3-1.9,4.6-4.2,4.5c-2.3-0.1-3.9-1.9-3.8-4.5c0.1-2.8,1.8-4.6,4.2-4.5
		C57.9,1.8,59.4,3.7,59.3,6.3z M52.5,6.3c0,1.9,0.9,3.6,2.7,3.6c1.8,0,2.8-1.6,2.9-3.6c0-1.7-0.8-3.6-2.7-3.6
		C53.6,2.6,52.6,4.3,52.5,6.3z"/>
	<path class="st0" d="M61.9,2.4L63,2.6l-1.4,7.7l3.7,0.7l-0.2,0.9L60.3,11L61.9,2.4z"/>
</g>
</svg>
